<svg xmlns="http://www.w3.org/2000/svg" viewBox="0 0 64 64" role="img" aria-label="TG for Astra">
  <title>TG for Astra</title>
  <defs>
    <linearGradient id="bg" x1="8" y1="4" x2="57" y2="61" gradientUnits="userSpaceOnUse">
      <stop stop-color="#39b8ff"/>
      <stop offset="1" stop-color="#1769d2"/>
    </linearGradient>
  </defs>
  <rect x="2" y="2" width="60" height="60" rx="17" fill="url(#bg)"/>
  <path d="M14 31.3 49.8 17c1.8-.7 3.4.7 2.9 2.8l-6.1 28.8c-.4 2.1-2 2.6-3.7 1.6l-9.4-7-4.6 4.5c-.5.5-.9.9-1.9.9l.7-9.6 17.5-15.8c.8-.7-.2-1.1-1.2-.4L22.4 36.4l-9.3-2.9c-2-.6-2.1-2 .9-3.2Z" fill="#fff"/>
  <path d="M7 48c3.4 0 3.4-5 6.8-5s3.4 5 6.8 5" fill="none" stroke="#9ce0ff" stroke-width="2.4" stroke-linecap="round"/>
</svg>
